<svg width="477" height="81" viewBox="0 0 477 81" fill="none" xmlns="http://www.w3.org/2000/svg">
<path opacity="0.9" d="M112.828 35.5418C110.974 35.5418 109.3 35.1204 107.807 34.2777C106.315 33.4108 105.147 32.243 104.304 30.7743C103.461 29.2814 103.04 27.62 103.04 25.7901V18.4222C103.04 16.5682 103.461 14.9068 104.304 13.438C105.147 11.9452 106.315 10.7774 107.807 9.93463C109.3 9.06782 110.974 8.63441 112.828 8.63441H115.934C117.812 8.63441 119.497 9.06782 120.99 9.93463C122.483 10.7774 123.651 11.9452 124.494 13.438C125.336 14.9068 125.758 16.5682 125.758 18.4222V25.7901C125.758 27.62 125.324 29.2814 124.457 30.7743C123.615 32.243 122.447 33.4108 120.954 34.2777C119.461 35.1204 117.788 35.5418 115.934 35.5418H112.828ZM115.609 30.4853C117.15 30.4853 118.354 30.0519 119.22 29.1851C120.087 28.3183 120.521 27.1144 120.521 25.5734V18.6389C120.521 17.0979 120.087 15.894 119.22 15.0272C118.354 14.1363 117.15 13.6908 115.609 13.6908H113.153C111.612 13.6908 110.408 14.1242 109.541 14.991C108.698 15.8579 108.277 17.0738 108.277 18.6389V25.5734C108.277 27.1144 108.698 28.3183 109.541 29.1851C110.408 30.0519 111.612 30.4853 113.153 30.4853H115.609ZM139.588 33.7359C137.542 33.7359 135.688 33.3145 134.026 32.4718C132.365 31.605 131.065 30.4131 130.126 28.8962C129.187 27.3793 128.717 25.6938 128.717 23.8398V20.4447C128.717 18.5907 129.187 16.9053 130.126 15.3883C131.065 13.8714 132.365 12.6916 134.026 11.8488C135.688 10.982 137.542 10.5486 139.588 10.5486H141.214V7.00913H146.27V10.5486H147.859C149.906 10.5486 151.76 10.982 153.421 11.8488C155.083 12.6916 156.383 13.8714 157.322 15.3883C158.285 16.9053 158.767 18.5907 158.767 20.4447V23.8398C158.767 25.6938 158.285 27.3793 157.322 28.8962C156.383 30.4131 155.083 31.605 153.421 32.4718C151.76 33.3145 149.906 33.7359 147.859 33.7359H146.27V37.3476H141.214V33.7359H139.588ZM147.859 28.6795C149.665 28.6795 151.049 28.1979 152.013 27.2348C153 26.2717 153.493 24.8992 153.493 23.1174V21.1671C153.493 19.3853 153 18.0129 152.013 17.0497C151.049 16.0866 149.665 15.605 147.859 15.605H146.234V28.6795H147.859ZM133.954 23.1174C133.954 24.8992 134.436 26.2717 135.399 27.2348C136.386 28.1979 137.782 28.6795 139.588 28.6795H141.25V15.605H139.588C137.782 15.605 136.386 16.0866 135.399 17.0497C134.436 18.0129 133.954 19.3853 133.954 21.1671V23.1174ZM162.064 9.17617H167.229V20.228L166.976 27.4876L169.251 23.298L178.786 9.17617H183.951V35H178.786V24.0565L179.039 16.7608L176.836 20.842L167.229 35H162.064V9.17617ZM208.171 35H188.27V9.17617H193.435V29.9797H204.342V9.17617H209.507V29.9797H212.974V41.465H208.171V35ZM215.358 9.17617H220.523V20.228L220.27 27.4876L222.545 23.298L232.08 9.17617H237.245V35H232.08V24.0565L232.333 16.7608L230.13 20.842L220.523 35H215.358V9.17617ZM249.366 9.17617H254.928L265.185 35H259.587L257.564 29.7991H246.657L244.634 35H239.036L249.366 9.17617ZM256.011 25.0316L252.147 14.9188L248.282 25.0316H256.011ZM265.55 29.9436H266.778C267.5 29.9436 268.078 29.8112 268.511 29.5463C268.945 29.2814 269.282 28.836 269.523 28.21C269.763 27.5598 269.956 26.6569 270.101 25.5012L272.087 9.17617H289.026V35H283.861V14.1965H276.71L275.265 25.8985C274.856 29.149 274.025 31.4846 272.773 32.9052C271.521 34.3017 269.643 35 267.139 35H265.55V29.9436ZM293.377 9.17617H298.506V17.4831L305.548 17.5193C308.028 17.5193 310.003 18.2296 311.472 19.6502C312.94 21.0708 313.675 22.973 313.675 25.3567V27.307C313.675 28.848 313.338 30.1964 312.664 31.3522C312.013 32.5079 311.074 33.4108 309.846 34.061C308.618 34.687 307.186 35 305.548 35H293.377V9.17617ZM304.646 30.0519C305.801 30.0519 306.716 29.8112 307.39 29.3296C308.065 28.848 308.402 28.0775 308.402 27.0181V25.4289C308.402 24.3454 308.065 23.5629 307.39 23.0813C306.716 22.5997 305.801 22.359 304.646 22.359L298.506 22.3228V30.0519H304.646ZM332.951 24.4538H321.538V35H316.373V9.17617H321.538V19.4335H332.951V9.17617H338.116V35H332.951V24.4538ZM365.481 9.17617H370.646V35H365.481V9.17617ZM342.439 9.17617H347.567V17.4831L354.61 17.5193C357.09 17.5193 359.065 18.2296 360.533 19.6502C362.002 21.0708 362.736 22.973 362.736 25.3567V27.307C362.736 28.848 362.399 30.1964 361.725 31.3522C361.075 32.5079 360.136 33.4108 358.908 34.061C357.68 34.687 356.247 35 354.61 35H342.439V9.17617ZM353.707 30.0519C354.863 30.0519 355.778 29.8112 356.452 29.3296C357.126 28.848 357.463 28.0775 357.463 27.0181V25.4289C357.463 24.3454 357.126 23.5629 356.452 23.0813C355.778 22.5997 354.863 22.359 353.707 22.359L347.567 22.3228V30.0519H353.707ZM374.993 9.17617H380.158V20.228L379.905 27.4876L382.181 23.298L391.716 9.17617H396.881V35H391.716V24.0565L391.969 16.7608L389.765 20.842L380.158 35H374.993V9.17617ZM383.3 0.905315C383.3 1.5795 383.349 2.08515 383.445 2.42224C383.541 2.75933 383.746 3.01215 384.059 3.1807C384.372 3.34925 384.865 3.43352 385.54 3.43352H387.057C387.731 3.43352 388.224 3.34925 388.537 3.1807C388.85 3.01215 389.055 2.75933 389.151 2.42224C389.248 2.08515 389.296 1.5795 389.296 0.905315H393.522C393.522 3.04827 393.04 4.60131 392.077 5.56444C391.138 6.52757 389.717 7.00913 387.815 7.00913H384.781C382.879 7.00913 381.446 6.52757 380.483 5.56444C379.544 4.60131 379.075 3.04827 379.075 0.905315H383.3ZM112.828 73.5418C110.974 73.5418 109.3 73.1204 107.807 72.2777C106.315 71.4108 105.147 70.243 104.304 68.7743C103.461 67.2814 103.04 65.62 103.04 63.7901V56.4222C103.04 54.5682 103.461 52.9068 104.304 51.438C105.147 49.9452 106.315 48.7774 107.807 47.9346C109.3 47.0678 110.974 46.6344 112.828 46.6344H115.139C117.114 46.6344 118.835 47.0799 120.304 47.9707C121.797 48.8376 122.94 50.0294 123.735 51.5464C124.554 53.0633 124.963 54.7487 124.963 56.6028H119.762C119.762 55.0858 119.329 53.894 118.462 53.0272C117.595 52.1363 116.403 51.6908 114.886 51.6908H113.153C111.612 51.6908 110.408 52.1242 109.541 52.991C108.698 53.8579 108.277 55.0738 108.277 56.6389V63.5734C108.277 65.1144 108.698 66.3183 109.541 67.1851C110.408 68.0519 111.612 68.4853 113.153 68.4853H114.886C116.427 68.4853 117.619 68.0519 118.462 67.1851C119.329 66.3183 119.762 65.1024 119.762 63.5373H124.963C124.963 65.3913 124.554 67.0888 123.735 68.6298C122.94 70.1467 121.797 71.3506 120.304 72.2415C118.835 73.1084 117.114 73.5418 115.139 73.5418H112.828ZM128.31 47.1762H146.513V52.0881H133.475V57.6141H145.357V62.4176H133.475V68.0519H146.694V73H128.31V47.1762ZM162.819 47.1762C164.263 47.1762 165.576 47.5133 166.756 48.1874C167.959 48.8616 168.911 49.7886 169.609 50.9685C170.307 52.1242 170.656 53.4124 170.656 54.833V57.6502C170.656 59.0949 170.307 60.4312 169.609 61.6592C168.911 62.8631 167.959 63.8262 166.756 64.5486C165.576 65.2468 164.275 65.596 162.855 65.596L155.342 65.6321V73H150.178V47.1762H162.819ZM155.342 60.684L162.205 60.6479C164.372 60.6479 165.455 59.5162 165.455 57.2529V55.5193C165.455 53.2318 164.372 52.0881 162.205 52.0881H155.342V60.684ZM173.315 47.1762H186.787C188.81 47.1762 190.423 47.7781 191.627 48.982C192.855 50.1859 193.469 51.7631 193.469 53.7134V54.0384C193.469 55.2905 193.204 56.3981 192.674 57.3612C192.169 58.3003 191.446 59.0226 190.507 59.5283C191.663 60.0339 192.554 60.8164 193.18 61.8759C193.806 62.9353 194.119 64.1994 194.119 65.6682V66.1738C194.119 68.2205 193.445 69.8698 192.096 71.1219C190.772 72.374 189.014 73 186.823 73H173.315V47.1762ZM186.354 68.0519C187.076 68.0519 187.69 67.8232 188.196 67.3657C188.725 66.9082 188.99 66.2822 188.99 65.4876V64.982C188.99 64.1633 188.725 63.5252 188.196 63.0678C187.69 62.6103 187.076 62.3815 186.354 62.3815H178.444V68.0519H186.354ZM185.776 57.5779C186.498 57.5779 187.1 57.3612 187.582 56.9278C188.087 56.4703 188.34 55.8443 188.34 55.0497V54.5802C188.34 53.8097 188.087 53.2077 187.582 52.7743C187.076 52.3169 186.474 52.0881 185.776 52.0881H178.444V57.5779H185.776ZM197.37 47.1762H202.535V58.228L202.282 65.4876L204.557 61.298L214.092 47.1762H219.257V73H214.092V62.0565L214.345 54.7608L212.142 58.842L202.535 73H197.37V47.1762ZM232.678 73.5418C230.824 73.5418 229.15 73.1204 227.657 72.2777C226.165 71.4108 224.997 70.243 224.154 68.7743C223.311 67.2814 222.89 65.62 222.89 63.7901V56.4222C222.89 54.5682 223.311 52.9068 224.154 51.438C224.997 49.9452 226.165 48.7774 227.657 47.9346C229.15 47.0678 230.824 46.6344 232.678 46.6344H234.989C236.964 46.6344 238.685 47.0799 240.154 47.9707C241.647 48.8376 242.791 50.0294 243.585 51.5464C244.404 53.0633 244.813 54.7487 244.813 56.6028H239.612C239.612 55.0858 239.179 53.894 238.312 53.0272C237.445 52.1363 236.253 51.6908 234.736 51.6908H233.003C231.462 51.6908 230.258 52.1242 229.391 52.991C228.548 53.8579 228.127 55.0738 228.127 56.6389V63.5734C228.127 65.1144 228.548 66.3183 229.391 67.1851C230.258 68.0519 231.462 68.4853 233.003 68.4853H234.736C236.277 68.4853 237.469 68.0519 238.312 67.1851C239.179 66.3183 239.612 65.1024 239.612 63.5373H244.813C244.813 65.3913 244.404 67.0888 243.585 68.6298C242.791 70.1467 241.647 71.3506 240.154 72.2415C238.685 73.1084 236.964 73.5418 234.989 73.5418H232.678ZM248.151 59.9617H260.467V64.7653H248.151V59.9617ZM284.391 73H264.49V47.1762H269.655V67.9797H280.562V47.1762H285.727V67.9797H289.194V79.465H284.391V73ZM291.578 47.1762H309.781V52.0881H296.743V57.6141H308.625V62.4176H296.743V68.0519H309.962V73H291.578V47.1762ZM330.024 62.4538H318.611V73H313.446V47.1762H318.611V57.4335H330.024V47.1762H335.189V73H330.024V62.4538ZM345.723 52.1603H337.886V47.1762H358.689V52.1603H350.888V73H345.723V52.1603ZM374.055 47.1762C375.5 47.1762 376.812 47.5133 377.992 48.1874C379.196 48.8616 380.147 49.7886 380.845 50.9685C381.544 52.1242 381.893 53.4124 381.893 54.833V57.6502C381.893 59.0949 381.544 60.4312 380.845 61.6592C380.147 62.8631 379.196 63.8262 377.992 64.5486C376.812 65.2468 375.512 65.596 374.091 65.596L366.579 65.6321V73H361.414V47.1762H374.055ZM366.579 60.684L373.441 60.6479C375.608 60.6479 376.692 59.5162 376.692 57.2529V55.5193C376.692 53.2318 375.608 52.0881 373.441 52.0881H366.579V60.684Z" fill="white"/>
<circle cx="39.2195" cy="42.4487" r="33.6167" fill="white"/>
<path d="M38.6852 3.23047C46.3382 3.22897 53.8198 5.49698 60.1838 9.74769C66.5478 13.9984 71.5084 20.0409 74.4381 27.1109C77.3678 34.181 78.1351 41.961 76.643 49.4672C75.1509 56.9734 71.4664 63.8685 66.0554 69.2805C60.6444 74.6926 53.7501 78.3784 46.2442 79.872C38.7383 81.3656 30.9581 80.5998 23.8875 77.6715C16.8168 74.7431 10.7734 69.7838 6.52144 63.4206C2.26948 57.0575 1.47464e-07 49.5763 0 41.9233C-1.97709e-07 31.6626 4.07551 21.8221 11.3302 14.566C18.5848 7.30992 28.4245 3.23248 38.6852 3.23047ZM57.7961 30.3929C58.6513 29.5377 59.1317 28.3779 59.1317 27.1685C59.1317 25.9591 58.6513 24.7993 57.7961 23.9441C56.941 23.0889 55.7811 22.6085 54.5717 22.6085C53.3623 22.6085 52.2025 23.0889 51.3473 23.9441L39.3308 35.9606H38.4042L26.3877 23.9441C25.5325 23.0879 24.3723 22.6065 23.1622 22.6058C21.9521 22.6051 20.7912 23.0851 19.9351 23.9403C19.0789 24.7955 18.5975 25.9557 18.5968 27.1658C18.5961 28.3759 19.0761 29.5367 19.9313 30.3929L34.2113 44.6577V65.0751C34.2596 66.2626 34.7652 67.3853 35.6225 68.2085C36.4797 69.0316 37.6221 69.4912 38.8105 69.4912C39.999 69.4912 41.1413 69.0316 41.9986 68.2085C42.8558 67.3853 43.3615 66.2626 43.4098 65.0751V44.7717L57.7961 30.3929Z" fill="#E03638"/>
</svg>
