<svg width="171" height="29" viewBox="0 0 171 29" fill="none" xmlns="http://www.w3.org/2000/svg">
<path opacity="0.9" d="M46.4686 7.67547C46.4686 8.94435 46.0672 9.98879 45.2644 10.8088C44.3581 11.7324 43.1626 12.1942 41.6779 12.1942C40.1932 12.1942 38.9977 11.7324 38.0914 10.8088C37.2886 9.98879 36.8873 8.94435 36.8873 7.67547C36.8873 6.41523 37.2886 5.3751 38.0914 4.55508C38.9977 3.63148 40.1932 3.16968 41.6779 3.16968C43.1626 3.16968 44.3581 3.63148 45.2644 4.55508C46.0672 5.3751 46.4686 6.41523 46.4686 7.67547ZM41.6779 5.95343C41.2032 5.95343 40.8277 6.10017 40.5515 6.39365C40.2235 6.73892 40.0595 7.17051 40.0595 7.68842C40.0595 8.21496 40.2235 8.64223 40.5515 8.97024C40.8449 9.26372 41.2204 9.41046 41.6779 9.41046C42.1354 9.41046 42.5109 9.26372 42.8044 8.97024C43.1324 8.64223 43.2964 8.21496 43.2964 7.68842C43.2964 7.13599 43.1324 6.7044 42.8044 6.39365C42.5109 6.10017 42.1354 5.95343 41.6779 5.95343ZM51.5629 12V10.7441C50.1041 10.7441 49.0251 10.3859 48.3259 9.66942C47.7303 9.05656 47.4326 8.21927 47.4326 7.15756C47.4326 6.13038 47.7347 5.31468 48.3389 4.71045C48.736 4.31339 49.228 4.03286 49.8149 3.86885C50.4105 3.69622 50.9932 3.6099 51.5629 3.6099V2.36692H54.5797V3.6099C56.0212 3.62716 57.0958 3.99401 57.8037 4.71045C58.4079 5.32331 58.71 6.1347 58.71 7.14462C58.71 8.1977 58.4122 9.0393 57.8166 9.66942C57.1433 10.3859 56.0643 10.7441 54.5797 10.7441V12H51.5629ZM54.3078 5.96638V8.40054H54.3596C54.8861 8.40054 55.2616 8.29265 55.486 8.07685C55.7018 7.87832 55.8097 7.57621 55.8097 7.17051C55.8097 6.75619 55.6975 6.44976 55.4731 6.25123C55.2659 6.06133 54.8775 5.96638 54.3078 5.96638ZM51.8348 5.96638C51.2651 5.96638 50.8766 6.06133 50.6695 6.25123C50.445 6.44976 50.3328 6.75619 50.3328 7.17051C50.3328 7.57621 50.4407 7.87832 50.6565 8.07685C50.881 8.29265 51.2564 8.40054 51.783 8.40054H51.8348V5.96638ZM60.0606 3.36389H63.0386V6.43249C63.0386 6.88998 62.9868 7.42083 62.8832 8.02506H62.9997C63.2241 7.42947 63.414 6.99788 63.5694 6.73029L65.4598 3.36389H68.2694V12H65.2915V9.06087C65.2915 8.56886 65.3433 8.03801 65.4468 7.46831H65.3303C65.149 7.98622 64.9591 8.41781 64.7606 8.76308L62.8702 12H60.0606V3.36389ZM69.999 12V3.36389H73.0158V9.35867H74.932V3.36389H77.9488V9.35867H79.1789V13.722H76.5116V12H69.999ZM80.3672 3.36389H83.3452V6.43249C83.3452 6.88998 83.2934 7.42083 83.1898 8.02506H83.3063C83.5308 7.42947 83.7207 6.99788 83.876 6.73029L85.7664 3.36389H88.5761V12H85.5981V9.06087C85.5981 8.56886 85.6499 8.03801 85.7535 7.46831H85.6369C85.4557 7.98622 85.2658 8.41781 85.0672 8.76308L83.1769 12H80.3672V3.36389ZM95.3681 10.9253H92.9858L92.7527 12H89.4381L92.429 3.36389H95.899L98.9805 12H95.653L95.3681 10.9253ZM94.423 7.2223C94.3539 6.92882 94.2978 6.60513 94.2546 6.25123H94.1381C94.1295 6.56197 94.082 6.88566 93.9957 7.2223L93.5684 8.87961H94.8243L94.423 7.2223ZM101.113 3.36389H108.661V12H105.645V6.08291H103.832V8.68539C103.832 9.87658 103.556 10.7613 103.003 11.3397C102.485 11.8748 101.713 12.1424 100.686 12.1424C100.228 12.1424 99.7923 12.1079 99.378 12.0388V9.60468C99.5074 9.6392 99.6801 9.65647 99.8959 9.65647C100.284 9.65647 100.569 9.57015 100.75 9.39751C100.992 9.16446 101.113 8.72855 101.113 8.0898V3.36389ZM110.397 12V3.36389H113.414V6.56197H114.916C115.874 6.56197 116.616 6.83387 117.143 7.37768C117.618 7.85242 117.855 8.48254 117.855 9.26804C117.855 10.114 117.596 10.77 117.078 11.2361C116.509 11.7454 115.637 12 114.463 12H110.397ZM113.414 9.92837H114.01C114.303 9.92837 114.519 9.88089 114.657 9.78595C114.838 9.6651 114.929 9.46657 114.929 9.19035C114.929 8.94003 114.847 8.75445 114.683 8.6336C114.553 8.53865 114.351 8.49118 114.074 8.49118H113.414V9.92837ZM122.126 12H119.109V3.36389H122.126V6.29007H124.042V3.36389H127.059V12H124.042V8.99614H122.126V12ZM128.795 12V3.36389H131.811V6.56197H133.262C134.22 6.56197 134.962 6.83387 135.489 7.37768C135.963 7.85242 136.201 8.48254 136.201 9.26804C136.201 10.114 135.942 10.77 135.424 11.2361C134.854 11.7454 133.982 12 132.808 12H128.795ZM131.811 9.92837H132.407C132.7 9.92837 132.916 9.88089 133.054 9.78595C133.236 9.6651 133.326 9.46657 133.326 9.19035C133.326 8.94003 133.244 8.75445 133.08 8.6336C132.951 8.53865 132.748 8.49118 132.472 8.49118H131.811V9.92837ZM139.826 12H136.809V3.36389H139.826V12ZM141.565 3.36389H144.543V6.43249C144.543 6.88998 144.491 7.42083 144.388 8.02506H144.504C144.729 7.42947 144.919 6.99788 145.074 6.73029L146.964 3.36389H149.774V12H146.796V9.06087C146.796 8.56886 146.848 8.03801 146.952 7.46831H146.835C146.654 7.98622 146.464 8.41781 146.265 8.76308L144.375 12H141.565V3.36389ZM146.693 0.398871L148.402 1.0851C148.16 1.59437 147.789 1.97417 147.288 2.22449C146.857 2.44029 146.313 2.54819 145.657 2.54819C144.983 2.54819 144.435 2.44029 144.012 2.22449C143.529 1.9828 143.162 1.60301 142.912 1.0851L144.621 0.398871C144.681 0.623297 144.789 0.800249 144.945 0.929726C145.117 1.0592 145.359 1.12394 145.67 1.12394C145.98 1.12394 146.213 1.0592 146.369 0.929726C146.524 0.800249 146.632 0.623297 146.693 0.398871ZM43.5942 22.6207L43.5035 25.8446C42.8907 26.0777 42.1656 26.1942 41.3283 26.1942C40.0422 26.1942 38.9805 25.7756 38.1432 24.9383C37.3059 24.1183 36.8873 23.0566 36.8873 21.7532C36.8873 20.4498 37.3189 19.3578 38.182 18.4774C39.0538 17.6056 40.1415 17.1697 41.4449 17.1697C42.1527 17.1697 42.8389 17.2819 43.5035 17.5063L43.5942 20.795C43.0245 20.2253 42.4159 19.9405 41.7685 19.9405C41.2593 19.9405 40.8406 20.1174 40.5126 20.4713C40.2105 20.7993 40.0595 21.2094 40.0595 21.7014C40.0595 22.202 40.2278 22.6163 40.5644 22.9443C40.9097 23.2724 41.337 23.4364 41.8462 23.4364C42.5195 23.4364 43.1022 23.1645 43.5942 22.6207ZM50.8296 26H44.9255V17.3639H50.7519V19.7333H48.0588V20.5361H50.5059V22.8019H48.0588V23.6306H50.8296V26ZM55.2263 26H52.1706V17.3639H56.3139C57.4187 17.3639 58.2603 17.6444 58.8387 18.2055C59.4256 18.7752 59.7191 19.5391 59.7191 20.4972C59.7191 21.4381 59.4343 22.1632 58.8646 22.6724C58.3466 23.1558 57.6388 23.3975 56.7411 23.3975H55.2263V26ZM55.2263 19.7333V21.2223H55.7571C56.0679 21.2223 56.3009 21.1446 56.4563 20.9892C56.5944 20.8684 56.6634 20.6914 56.6634 20.4584C56.6634 20.2253 56.5858 20.0484 56.4304 19.9275C56.275 19.7981 56.0635 19.7333 55.796 19.7333H55.2263ZM60.8066 26V17.3639H64.5744C65.7828 17.3639 66.6417 17.6056 67.151 18.089C67.5912 18.5033 67.8113 19.0687 67.8113 19.7851C67.8113 20.2771 67.6905 20.6699 67.4488 20.9633C67.2589 21.205 67.0085 21.382 66.6978 21.4942L66.6849 21.5719C67.0129 21.6582 67.315 21.8308 67.5912 22.0898C68.0141 22.4869 68.2256 22.9746 68.2256 23.5529C68.2256 24.3729 67.9149 25.003 67.2934 25.4432C66.7669 25.8144 66.0073 26 65.0146 26H60.8066ZM63.7069 19.4355V20.6785H64.1989C64.4665 20.6785 64.665 20.6138 64.7945 20.4843C64.9067 20.3721 64.9628 20.221 64.9628 20.0311C64.9628 19.8412 64.8981 19.6902 64.7686 19.5779C64.6478 19.483 64.4579 19.4355 64.1989 19.4355H63.7069ZM63.7069 22.4912V23.9154H64.3413C64.6262 23.9154 64.8463 23.8679 65.0017 23.773C65.2002 23.6435 65.2995 23.4493 65.2995 23.1904C65.2995 22.9746 65.2218 22.8019 65.0664 22.6724C64.9197 22.5516 64.6909 22.4912 64.3802 22.4912H63.7069ZM69.5691 17.3639H72.547V20.4325C72.547 20.89 72.4952 21.4208 72.3916 22.0251H72.5082C72.7326 21.4295 72.9225 20.9979 73.0779 20.7303L74.9682 17.3639H77.7779V26H74.7999V23.0609C74.7999 22.5689 74.8517 22.038 74.9553 21.4683H74.8388C74.6575 21.9862 74.4676 22.4178 74.2691 22.7631L72.3787 26H69.5691V17.3639ZM85.8259 22.6207L85.7353 25.8446C85.1224 26.0777 84.3973 26.1942 83.56 26.1942C82.2739 26.1942 81.2122 25.7756 80.3749 24.9383C79.5376 24.1183 79.119 23.0566 79.119 21.7532C79.119 20.4498 79.5506 19.3578 80.4138 18.4774C81.2856 17.6056 82.3732 17.1697 83.6766 17.1697C84.3844 17.1697 85.0706 17.2819 85.7353 17.5063L85.8259 20.795C85.2562 20.2253 84.6476 19.9405 84.0003 19.9405C83.491 19.9405 83.0723 20.1174 82.7443 20.4713C82.4422 20.7993 82.2912 21.2094 82.2912 21.7014C82.2912 22.202 82.4595 22.6163 82.7961 22.9443C83.1414 23.2724 83.5687 23.4364 84.0779 23.4364C84.7512 23.4364 85.3339 23.1645 85.8259 22.6207ZM91.0156 23.7342H86.9371V21.4036H91.0156V23.7342ZM92.531 26V17.3639H95.5478V23.3587H97.464V17.3639H100.481V23.3587H101.711V27.722H99.0437V26H92.531ZM108.803 26H102.899V17.3639H108.726V19.7333H106.033V20.5361H108.48V22.8019H106.033V23.6306H108.803V26ZM113.161 26H110.144V17.3639H113.161V20.2901H115.077V17.3639H118.094V26H115.077V22.9961H113.161V26ZM123.895 26H120.814V20.0959L119.053 20.1735V17.3639H125.656V20.1735L123.895 20.0959V26ZM129.675 26H126.62V17.3639H130.763C131.868 17.3639 132.71 17.6444 133.288 18.2055C133.875 18.7752 134.168 19.5391 134.168 20.4972C134.168 21.4381 133.883 22.1632 133.314 22.6724C132.796 23.1558 132.088 23.3975 131.19 23.3975H129.675V26ZM129.675 19.7333V21.2223H130.206C130.517 21.2223 130.75 21.1446 130.905 20.9892C131.044 20.8684 131.113 20.6914 131.113 20.4584C131.113 20.2253 131.035 20.0484 130.88 19.9275C130.724 19.7981 130.513 19.7333 130.245 19.7333H129.675Z" fill="#383838"/>
<circle cx="14.06" cy="15.0591" r="12.0513" fill="white"/>
<path d="M13.8683 1C16.6118 0.999462 19.2939 1.81252 21.5753 3.33636C23.8568 4.8602 25.6351 7.02636 26.6853 9.56091C27.7356 12.0955 28.0107 14.8845 27.4758 17.5754C26.9409 20.2663 25.62 22.7381 23.6802 24.6783C21.7404 26.6185 19.2689 27.9398 16.5781 28.4753C13.8873 29.0107 11.0982 28.7362 8.56343 27.6864C6.02867 26.6366 3.86216 24.8587 2.33787 22.5776C0.813589 20.2965 5.28644e-08 17.6145 0 14.871C-7.08769e-08 11.1927 1.46103 7.66492 4.06176 5.06368C6.66249 2.46245 10.1899 1.00072 13.8683 1ZM20.7194 10.7375C21.0259 10.4309 21.1982 10.0151 21.1982 9.58156C21.1982 9.148 21.0259 8.73221 20.7194 8.42564C20.4128 8.11907 19.997 7.94684 19.5634 7.94684C19.1299 7.94684 18.7141 8.11907 18.4075 8.42564L14.0997 12.7334H13.7675L9.45973 8.42564C9.15316 8.11871 8.73722 7.94614 8.30341 7.94588C7.8696 7.94562 7.45346 8.11771 7.14653 8.42428C6.8396 8.73085 6.66703 9.14679 6.66677 9.58059C6.66652 10.0144 6.8386 10.4305 7.14517 10.7375L12.2644 15.8513V23.1707C12.2817 23.5964 12.463 23.9989 12.7703 24.294C13.0776 24.5891 13.4872 24.7538 13.9132 24.7538C14.3392 24.7538 14.7488 24.5891 15.0561 24.294C15.3634 23.9989 15.5447 23.5964 15.562 23.1707V15.8921L20.7194 10.7375Z" fill="#E03638"/>
</svg>
